<?xml version="1.0" encoding="utf-8"?>
<!-- Generator: Adobe Illustrator 25.4.1, SVG Export Plug-In . SVG Version: 6.00 Build 0)  -->
<svg version="1.2" baseProfile="tiny" id="ISOC-Chapter_x2F_SIG-logo"
	 xmlns="http://www.w3.org/2000/svg" xmlns:xlink="http://www.w3.org/1999/xlink" x="0px" y="0px" viewBox="0 0 1438.32 302.36"
	 overflow="visible" xml:space="preserve">
<g>
	<path fill="#0C1C2C" d="M189.92,212.07c0.2-2.06,2.04-3.74,4.11-3.74h73.65c8.37-17.58,13.05-37.24,13.05-58
		c0-8.27-0.75-16.36-2.17-24.22h-45.11c-2.07,0-3.87-1.68-4.03-3.74c-0.31-3.81-0.68-7.58-1.11-11.3c-0.24-2.06,1.23-3.73,3.3-3.73
		h42.13c-17.96-53.55-68.54-92.13-128.13-92.13c-2.68,0-5.33,0.09-7.96,0.24c-3.56,6-7.6,16.16-11.23,32.58
		c-0.42,1.92-0.83,3.89-1.23,5.9c-0.4,2.04-2.38,3.69-4.45,3.69h-11.56c-2.07,0-3.47-1.66-3.09-3.69c0.63-3.43,1.3-6.75,2.01-9.94
		c2.16-9.79,4.62-18.24,7.37-25.38c-33.44,7.62-62.15,27.64-81.05,54.97h64.85c2.07,0,3.54,1.67,3.28,3.72
		c-0.45,3.69-0.86,7.46-1.24,11.31c-0.2,2.06-2.03,3.74-4.11,3.74H23.54c-8.37,17.58-13.05,37.24-13.05,58
		c0,8.27,0.75,16.36,2.17,24.22h45.11c2.07,0,3.87,1.68,4.03,3.74c0.31,3.81,0.68,7.58,1.11,11.3c0.24,2.06-1.23,3.73-3.3,3.73
		H17.48c17.96,53.55,68.54,92.13,128.14,92.13c2.67,0,5.33-0.09,7.96-0.24c3.56-6,7.6-16.16,11.23-32.57
		c0.42-1.92,0.83-3.89,1.23-5.9c0.4-2.03,2.38-3.69,4.45-3.69h11.56c2.07,0,3.47,1.66,3.09,3.7c-0.63,3.43-1.3,6.75-2.01,9.94
		c-2.16,9.79-4.62,18.24-7.37,25.38c33.44-7.62,62.15-27.64,81.05-54.97h-64.85c-2.07,0-3.53-1.67-3.28-3.72
		C189.12,219.69,189.54,215.92,189.92,212.07z M140.16,126.11c-2.07,0-3.69-1.68-3.6-3.75c0.16-3.81,0.36-7.57,0.59-11.27
		c0.13-2.07,1.93-3.75,4-3.75h63.98c2.07,0,3.98,1.67,4.24,3.72c0.46,3.72,0.86,7.49,1.2,11.3c0.18,2.06-1.38,3.74-3.45,3.74H140.16
		z M230.53,144.53c0.03,1.87,0.05,3.75,0.05,5.63c0,13.52-0.76,26.75-2.23,39.44c-0.24,2.06-2.13,3.73-4.21,3.73h-11.47
		c-2.07,0-3.52-1.66-3.27-3.72c1.58-12.71,2.41-26,2.41-39.44c0-1.88-0.02-3.75-0.05-5.63c-0.04-2.07,1.59-3.75,3.67-3.75h11.27
		C228.77,140.78,230.5,142.45,230.53,144.53z M194.79,45.01c5.66,2.66,11.16,5.71,16.33,9.32c3.4,2.37,7.12,7.63,8.28,11.6
		c2.11,7.22,3.94,14.81,5.46,22.71c0.39,2.04-0.99,3.69-3.07,3.69h-11.64c-2.07,0-4.07-1.65-4.49-3.68
		c-3-14.43-7.03-27.64-11.99-38.86c-0.49-1.11-1-2.24-1.54-3.37C191.33,44.76,193.08,44.2,194.79,45.01z M120.16,88.6
		c0.39-3.86,0.83-7.63,1.3-11.31c0.26-2.06,2.17-3.72,4.25-3.72h56.05c1.95,0,3.73,1.48,4.14,3.37l2.56,11.71
		c0.39,2.04-0.99,3.69-3.07,3.69h-61.84C121.47,92.33,119.95,90.66,120.16,88.6z M99.55,111.09c0.12-2.07,1.91-3.75,3.98-3.75h11.3
		c2.07,0,3.64,1.68,3.51,3.75c-0.76,12.62-1.15,25.85-1.15,39.42c0,1.88,0.01,3.76,0.03,5.63c0.02,2.07-1.64,3.75-3.71,3.75h-11.26
		c-2.07,0-3.78-1.68-3.79-3.75c-0.01-1.87-0.02-3.75-0.02-5.63C98.42,136.99,98.81,123.76,99.55,111.09z M151.07,174.56
		c2.07,0,3.69,1.68,3.6,3.75c-0.16,3.81-0.36,7.57-0.59,11.27c-0.13,2.07-1.93,3.75-4,3.75H86.09c-2.07,0-3.98-1.66-4.24-3.72
		c-0.46-3.72-0.86-7.49-1.19-11.3c-0.18-2.06,1.38-3.74,3.45-3.74H151.07z M60.69,156.14c-0.03-1.87-0.05-3.75-0.05-5.63
		c0-13.52,0.76-26.74,2.23-39.44c0.24-2.06,2.13-3.73,4.21-3.73h11.47c2.07,0,3.52,1.66,3.27,3.72
		c-1.58,12.71-2.41,25.99-2.41,39.44c0,1.88,0.02,3.76,0.05,5.63c0.04,2.07-1.59,3.75-3.67,3.75H64.52
		C62.45,159.9,60.72,158.22,60.69,156.14z M96.43,255.66c-5.66-2.66-11.16-5.71-16.33-9.32c-3.4-2.37-7.12-7.63-8.28-11.61
		c-2.11-7.22-3.94-14.81-5.46-22.71c-0.39-2.04,0.99-3.69,3.07-3.69h11.64c2.07,0,4.07,1.65,4.49,3.68
		c3,14.43,7.03,27.64,11.99,38.86c0.49,1.11,1,2.24,1.54,3.37C99.89,255.91,98.15,256.47,96.43,255.66z M169.77,223.38
		c-0.26,2.06-2.17,3.72-4.25,3.72h-56.05c-1.95,0-3.73-1.48-4.15-3.37l-2.56-11.71c-0.39-2.04,0.99-3.69,3.07-3.69h61.84
		c2.07,0,3.6,1.67,3.39,3.73C170.67,215.93,170.24,219.7,169.77,223.38z M187.69,193.32h-11.29c-2.07,0-3.64-1.68-3.51-3.75
		c0.76-12.62,1.15-25.85,1.15-39.42c0-1.88-0.01-3.76-0.02-5.63c-0.02-2.07,1.64-3.75,3.71-3.75h11.26c2.07,0,3.78,1.68,3.79,3.75
		c0.02,1.87,0.02,3.75,0.02,5.63c0,13.52-0.38,26.75-1.13,39.42C191.55,191.65,189.76,193.32,187.69,193.32z M506.73,135.21
		c-8.78,0-16.05-3.06-21.11-8.76c-4.07-4.54-6.09-11-6.09-19.82V75h-10.52c-1.67,0-2.68-1.66-3.02-2.98c0,0-1.16-7.44-1.58-9.21
		c-0.43-1.77,0.42-3,3.02-3h12.1v-16.8c0-1.67,1.35-3.02,3.03-3.02h10.7c1.67,0,3.05,1.35,3.05,3.02v16.8h16.54
		c2.6,0,3.45,1.23,3.02,3c-0.42,1.77-1.58,9.21-1.58,9.21c-0.34,1.32-1.35,2.98-3.02,2.98h-14.96v32.41c0,3.72,0.27,6.59,1.83,8.4
		c1.68,2.02,5.29,3.4,9.02,3.4c0.88,0,1.96-0.07,3.06-0.16c1.67-0.12,3,1.01,2.97,2.63l-0.11,10.09c-0.02,1.63-1.38,3.2-3.05,3.28
		C508.93,135.18,507.77,135.21,506.73,135.21z M408.86,130.65V83.78c3.71-4.44,8.54-9.54,17.92-9.54c5.47,0,9.22,2.35,12.28,6.62
		c2.33,3.17,4.04,6.28,4.04,15.92v33.88c0,1.7,1.37,3.03,3.03,3.03h10.68c1.67,0,3.05-1.33,3.05-3.03V97.51
		c0-11.91-2.23-19.74-7.28-26.15c-6.48-8.3-14.78-13.07-25.37-13.07c-9.78,0-14.99,4.12-18.79,7.02v-2.76c0-1.52-1.37-2.74-3-2.74
		h-10.23c-1.7,0-3.03,1.32-3.03,3v67.83c0,1.7,1.33,3.03,3.03,3.03h10.65C407.52,133.68,408.86,132.34,408.86,130.65z
		 M332.87,133.68h16.02h10.64h16.02c1.7,0,3.03-1.33,3.03-3.03v-9.23c0-1.69-1.34-3.05-3.03-3.05h-12.96V47.59h12.23
		c1.63,0,2.99-1.36,2.99-3.03V35.3c0-1.7-1.35-3.02-2.99-3.02h-15.28h-10.64h-15.46c-1.7,0-3.08,1.32-3.08,3.02v9.25
		c0,1.67,1.38,3.03,3.08,3.03h12.46v70.78h-13.03c-1.66,0-3.03,1.36-3.03,3.05v9.23C329.84,132.34,331.2,133.68,332.87,133.68z
		 M608.12,133.68h10.66c1.68,0,3.03-1.33,3.03-3.03V85.43c3.96-6.59,11.4-11.19,18.23-11.19c1.22,0,2.47,0.09,3.7,0.24
		c1.62,0.24,2.91-0.64,2.91-2.33v-10.5c0-1.67-1.09-3.18-2.47-3.26c-0.91-0.04-1.78-0.09-2.49-0.09c-9.23,0-16.23,3.7-20.32,7.84
		v-3.31c0-1.68-1.37-3-3.03-3h-10.21c-1.7,0-3.05,1.32-3.05,3v67.83C605.08,132.34,606.42,133.68,608.12,133.68z M857.87,75
		c1.7,0,3.01-1.32,3.01-2.98v-9.21c0-1.68-1.3-3-3.01-3h-13.95v-16.8c0-1.67-1.38-3.02-3.05-3.02h-10.7c-1.68,0-3.03,1.35-3.03,3.02
		v16.8h-12.1c-2.59,0-3.45,1.23-3.02,3c0.43,1.77,1.58,9.21,1.58,9.21c0.34,1.32,1.35,2.98,3.02,2.98h10.52v31.62
		c0,8.82,2.02,15.28,6.09,19.82c5.07,5.71,12.33,8.76,21.12,8.76c1.05,0,2.2-0.03,3.3-0.14c1.67-0.08,3.03-1.65,3.05-3.28
		l0.11-10.09c0.03-1.63-1.3-2.76-2.97-2.63c-1.1,0.09-2.18,0.16-3.06,0.16c-3.73,0-7.34-1.38-9.02-3.4c-1.57-1.8-1.84-4.68-1.84-8.4
		V75H857.87z M808.4,96.77c0,0.32-0.05,1.17-0.1,2.09c-0.08,1.14-1.5,2.04-3.2,2.04h-51.88c1.27,10.96,10.7,19.38,21.86,19.38
		c8.59,0,14-3.43,18.47-8.01c1.17-1.21,3.02-1.33,4.25-0.15l6.61,6.34c1.25,1.17,1.35,3.16,0.29,4.38
		c-4.78,5.16-14,12.36-29.78,12.36c-21.71,0-38.1-16.52-38.1-38.44c0-22.3,15.15-38.48,36-38.48
		C793.1,58.29,808.4,74.82,808.4,96.77z M792.65,87.78c-2.68-8.42-10.63-14.6-19.15-14.6c-9.27,0-17.46,5.94-20.49,14.6H792.65z
		 M693.29,58.4c-9.75,0-15.23,4.01-18.9,6.91v-2.76c0-1.52-1.35-2.74-3.06-2.74h-10.2c-1.69,0-3.03,1.32-3.03,3v67.83
		c0,1.7,1.34,3.03,3.03,3.03h10.68c1.7,0,3.03-1.33,3.03-3.03V83.78c3.75-4.44,8.51-9.54,17.89-9.54c5.42,0,9.11,2.44,12.33,6.62
		c2.12,2.73,4.01,6.28,4.01,15.92v33.88c0,1.7,1.35,3.03,3,3.03h10.73c1.7,0,3-1.33,3-3.03V97.51c0-11.91-1.58-20.28-6.63-26.73
		C712.66,62.47,703.93,58.4,693.29,58.4z M592.7,96.77c0,0.32-0.03,1.17-0.03,2.09c-0.12,1.14-1.58,2.04-3.24,2.04h-51.89
		c1.28,10.96,10.71,19.38,21.92,19.38c8.58,0,14-3.43,18.45-8.01c1.13-1.21,3.02-1.33,4.22-0.15l6.66,6.34
		c1.2,1.17,1.34,3.16,0.19,4.38c-4.7,5.16-13.9,12.36-29.68,12.36c-21.73,0-38.18-16.52-38.18-38.44c0-22.3,15.18-38.48,36.03-38.48
		C577.42,58.29,592.7,74.82,592.7,96.77z M576.97,87.78c-2.7-8.42-10.62-14.6-19.16-14.6c-9.29,0-17.45,5.94-20.46,14.6H576.97z
		 M1063.65,96.77c0,21.93-16.43,38.42-38.19,38.42c-21.73,0-38.12-16.49-38.12-38.42c0-21.94,16.4-38.42,38.12-38.42
		C1047.22,58.35,1063.65,74.83,1063.65,96.77z M1046.9,96.77c0-12.8-9.17-22.49-21.44-22.49c-12.17,0-21.37,9.7-21.37,22.49
		c0,12.83,9.2,22.49,21.37,22.49C1037.73,119.26,1046.9,109.6,1046.9,96.77z M964.56,82.22c-4.25-2.87-9.89-5.05-14.9-7.18
		c-9.67-4.08-18.23-7.44-18.23-15.11c0-8,7.19-12.31,14.79-12.31c5.26,0,10.52,1.79,15.58,5.03c1.3,0.83,2.91,0.83,3.92-0.39
		l6.09-7.55c0.98-1.19,0.8-3-0.43-3.93c-7.99-6.14-16.58-8.96-25.75-8.96c-17.31,0-30.88,11.91-30.88,27.19
		c0,9.29,4.36,16.85,12.99,22.56c4.25,2.77,9.19,4.83,13.98,6.77c10.04,4.14,18.79,8.08,18.79,17.69c0,7.87-6.22,13.05-15.44,13.05
		c-9.73,0-16.8-5.06-22.17-10.37c-1.11-1.07-2.68-1.24-3.82-0.16l-7.19,7.14c-1.12,1.07-1.22,2.94-0.19,4.1
		c9.17,10.23,21.17,15.4,34.11,15.4c18.28,0,31.56-12.4,31.56-29.57C977.36,95.9,973.39,88.06,964.56,82.22z M1143.38,115.26
		l-8.03-5.78c-1.33-0.96-3.14-0.68-4.31,0.57c-5.31,6.2-11.6,9.23-18.59,9.23c-13.29,0-22.64-9.3-22.64-22.51
		c0-12.8,9.35-22.47,21.76-22.47c8.29,0,14.19,4.64,17.75,8.92c1.08,1.27,2.88,1.54,4.11,0.47l7.82-6.58
		c1.29-1.08,1.56-3.05,0.5-4.33c-7.6-9.29-18.7-14.43-30.18-14.43c-21.95,0-38.47,16.48-38.47,38.43
		c0,21.92,16.92,38.41,39.35,38.41c12.38,0,24.92-5.99,31.75-15.63C1145.19,118.19,1144.71,116.23,1143.38,115.26z M1306.99,62.69
		c-0.31-1.12-1.28-2.79-3.34-2.79l-13.05,0.01V43.1c0-1.67-1.38-3.02-3.05-3.02h-10.7c-1.68,0-3.03,1.35-3.03,3.02v16.8h-12.1
		c-2.59,0-3.45,1.23-3.02,3c0.43,1.77,1.58,9.21,1.58,9.21c0.34,1.32,1.35,2.98,3.02,2.98h10.52v31.62c0,8.82,2.02,15.28,6.08,19.82
		c5.07,5.71,12.33,8.76,21.12,8.76c1.04,0,2.2-0.02,3.3-0.14c1.67-0.08,3.03-1.65,3.05-3.28l0.11-10.1c0.03-1.62-1.3-2.76-2.97-2.63
		c-1.1,0.09-2.18,0.16-3.06,0.16c-3.73,0-7.34-1.38-9.02-3.4c-1.57-1.8-1.83-4.68-1.83-8.4V75.09l16.76-0.05
		c1.54,0,3.35-0.62,2.79-2.79L1306.99,62.69z M1169.63,59.89h-10.68c-1.72,0-3.07,1.31-3.07,2.96v67.83c0,1.68,1.35,3,3.07,3h10.68
		c1.66,0,3-1.32,3-3V62.85C1172.63,61.2,1171.29,59.89,1169.63,59.89z M1164.18,25.31c-5.92,0-10.55,4.71-10.55,10.71
		c0,5.94,4.63,10.62,10.55,10.62c6.04,0,10.73-4.68,10.73-10.62C1174.91,30.15,1170.08,25.31,1164.18,25.31z M1255.82,96.78
		c0,0.35,0,1.14-0.05,2.09c-0.05,1.14-1.52,2.08-3.21,2.08h-51.9c1.31,10.97,10.71,19.34,21.92,19.34c8.57,0,13.98-3.45,18.45-7.97
		c1.17-1.22,3.02-1.31,4.23-0.16l6.64,6.34c1.24,1.15,1.37,3.17,0.26,4.36c-4.78,5.16-13.97,12.36-29.74,12.36
		c-21.75,0-38.17-16.52-38.17-38.45c0-22.3,15.17-38.43,36.01-38.43C1240.57,58.35,1255.82,74.83,1255.82,96.78z M1240.07,87.83
		c-2.64-8.45-10.62-14.59-19.11-14.59c-9.29,0-17.53,5.91-20.5,14.59H1240.07z M1390.68,59.89h-11.64c-1.71,0-3.57,1.2-4.24,2.71
		l-18.62,42.84l-20.41-42.89c-0.68-1.46-2.65-2.66-4.32-2.66l-12.26,0.02c-1.54,0-2.26,1.13-1.59,2.52l29.97,62.69l-15.68,35.73
		c-0.71,1.52,0.12,2.76,1.78,2.76h11.8c1.68,0,3.59-1.24,4.28-2.76l42.72-98.25C1393.19,61.09,1392.38,59.89,1390.68,59.89z"/>
</g>
<g>
	<path fill="#0C1C2C" d="M339.15,258.99c7.62,0,11.43-4.03,11.43-12.09v-66.74h10.64v65.82c0,15.15-6.88,22.73-20.62,22.73
		c-4.91,0-9.06-0.96-12.48-2.89v-10.25C331.61,257.86,335.29,258.99,339.15,258.99z"/>
	<path fill="#0C1C2C" d="M402.46,201.06c16.73,0,25.09,8.5,25.09,25.49v42.17h-10.25v-7.88c-3.42,5.69-9.64,8.54-18.65,8.54
		c-6.22,0-11.23-1.84-15.04-5.52c-3.81-3.68-5.71-8.52-5.71-14.52c0-6,2.43-10.77,7.29-14.32c4.86-3.55,11.5-5.32,19.9-5.32h12.09
		v-3.42c0-5.25-1.18-9.22-3.55-11.89c-2.36-2.67-6.72-4.01-13.07-4.01c-6.35,0-12.28,1.88-17.8,5.65v-10.38
		C387.75,202.59,394.32,201.06,402.46,201.06z M417.18,237.97h-11.56c-5.61,0-9.81,1.1-12.61,3.28c-2.8,2.19-4.2,4.95-4.2,8.28
		c0,3.33,1.09,6.02,3.28,8.08c2.19,2.06,5.52,3.09,9.98,3.09c4.47,0,8.1-1.33,10.9-4.01c2.8-2.67,4.2-6.06,4.2-10.18V237.97z"/>
	<path fill="#0C1C2C" d="M457.45,202.11v10.12c4.64-7.44,11.45-11.17,20.43-11.17c8.98,0,15.98,3.22,21.02,9.66
		c5.04,6.44,7.55,14.63,7.55,24.57c0,9.94-2.65,18.17-7.95,24.7c-5.3,6.53-12.26,9.79-20.89,9.79c-8.63,0-15.35-3.72-20.17-11.17v36
		h-10.25v-92.48H457.45z M457.45,235.21c0,8.67,1.97,15.02,5.91,19.05c3.94,4.03,8.52,6.04,13.73,6.04c5.21,0,9.61-2.21,13.2-6.63
		c3.59-4.42,5.39-10.49,5.39-18.19c0-7.71-1.75-13.79-5.25-18.26c-3.5-4.47-7.93-6.7-13.27-6.7c-5.34,0-9.96,1.95-13.86,5.85
		C459.4,220.26,457.45,226.54,457.45,235.21z"/>
	<path fill="#0C1C2C" d="M543.59,201.06c16.73,0,25.09,8.5,25.09,25.49v42.17h-10.25v-7.88c-3.42,5.69-9.64,8.54-18.65,8.54
		c-6.22,0-11.23-1.84-15.04-5.52c-3.81-3.68-5.71-8.52-5.71-14.52c0-6,2.43-10.77,7.29-14.32c4.86-3.55,11.5-5.32,19.9-5.32h12.09
		v-3.42c0-5.25-1.18-9.22-3.55-11.89c-2.36-2.67-6.72-4.01-13.07-4.01c-6.35,0-12.28,1.88-17.8,5.65v-10.38
		C528.88,202.59,535.45,201.06,543.59,201.06z M558.31,237.97h-11.56c-5.61,0-9.81,1.1-12.61,3.28c-2.8,2.19-4.2,4.95-4.2,8.28
		c0,3.33,1.09,6.02,3.28,8.08c2.19,2.06,5.52,3.09,9.98,3.09c4.47,0,8.1-1.33,10.9-4.01c2.8-2.67,4.2-6.06,4.2-10.18V237.97z"/>
	<path fill="#0C1C2C" d="M598.58,202.11v11.56c3.94-8.32,10.95-12.48,21.02-12.48c6.48,0,11.65,1.97,15.5,5.91
		c3.85,3.94,5.78,9.2,5.78,15.76v45.85H630.5v-43.09c0-4.9-1.25-8.65-3.74-11.23c-2.5-2.58-6-3.88-10.51-3.88
		c-4.51,0-8.58,1.93-12.22,5.78c-3.64,3.85-5.45,9.2-5.45,16.03v36.39h-10.25v-66.6H598.58z"/>
	<path fill="#0C1C2C" d="M740.46,188.97c-9.55,0-17.49,3.24-23.84,9.72c-6.35,6.48-9.52,15.04-9.52,25.68
		c0,10.64,3.15,19.2,9.46,25.68c6.31,6.48,14.67,9.72,25.09,9.72c8.41,0,15.59-2.23,21.54-6.7v11.17
		c-5.43,3.68-12.88,5.52-22.33,5.52c-13.31,0-24.13-4.09-32.45-12.28c-8.32-8.19-12.48-19.13-12.48-32.84
		c0-13.71,4.22-24.74,12.68-33.11c8.45-8.36,19.07-12.55,31.86-12.55c9.2,0,16.68,1.58,22.46,4.73v10.9
		c-3.86-2.01-7.31-3.46-10.38-4.33C749.48,189.41,745.45,188.97,740.46,188.97z"/>
	<path fill="#0C1C2C" d="M788.18,175.84v37.83c3.94-8.32,10.95-12.48,21.02-12.48c6.39,0,11.54,1.97,15.44,5.91
		c3.9,3.94,5.85,9.28,5.85,16.03v45.59h-10.38v-43.09c0-4.82-1.25-8.54-3.74-11.17c-2.5-2.63-5.98-3.94-10.44-3.94
		c-4.47,0-8.54,1.88-12.22,5.65c-3.68,3.77-5.52,9.15-5.52,16.16v36.39h-10.25v-92.88H788.18z"/>
	<path fill="#0C1C2C" d="M870.75,201.06c16.73,0,25.09,8.5,25.09,25.49v42.17h-10.25v-7.88c-3.41,5.69-9.63,8.54-18.65,8.54
		c-6.22,0-11.23-1.84-15.04-5.52c-3.81-3.68-5.71-8.52-5.71-14.52c0-6,2.43-10.77,7.29-14.32c4.86-3.55,11.49-5.32,19.9-5.32h12.09
		v-3.42c0-5.25-1.18-9.22-3.55-11.89c-2.37-2.67-6.72-4.01-13.07-4.01c-6.35,0-12.28,1.88-17.8,5.65v-10.38
		C856.03,202.59,862.6,201.06,870.75,201.06z M885.46,237.97H873.9c-5.61,0-9.81,1.1-12.61,3.28c-2.8,2.19-4.2,4.95-4.2,8.28
		c0,3.33,1.09,6.02,3.28,8.08c2.19,2.06,5.52,3.09,9.98,3.09c4.47,0,8.1-1.33,10.9-4.01c2.8-2.67,4.2-6.06,4.2-10.18V237.97z"/>
	<path fill="#0C1C2C" d="M925.74,202.11v10.12c4.64-7.44,11.45-11.17,20.43-11.17c8.98,0,15.98,3.22,21.02,9.66
		c5.04,6.44,7.55,14.63,7.55,24.57c0,9.94-2.65,18.17-7.95,24.7c-5.3,6.53-12.26,9.79-20.89,9.79c-8.63,0-15.35-3.72-20.17-11.17v36
		h-10.25v-92.48H925.74z M925.74,235.21c0,8.67,1.97,15.02,5.91,19.05c3.94,4.03,8.52,6.04,13.73,6.04c5.21,0,9.61-2.21,13.2-6.63
		c3.59-4.42,5.39-10.49,5.39-18.19c0-7.71-1.75-13.79-5.25-18.26c-3.5-4.47-7.93-6.7-13.27-6.7c-5.34,0-9.96,1.95-13.86,5.85
		C927.69,220.26,925.74,226.54,925.74,235.21z"/>
	<path fill="#0C1C2C" d="M1003.76,210.52v39.02c0,7.09,3.33,10.64,9.98,10.64c3.41,0,6.44-1.01,9.06-3.02v9.85
		c-2.89,1.58-6.13,2.37-9.72,2.37c-13.14,0-19.71-6.7-19.71-20.1v-38.75h-10.64v-8.41h10.64v-16.55h10.38v16.55h18.39v8.41H1003.76z
		"/>
	<path fill="#0C1C2C" d="M1066.17,269.37c-10.07,0-18.19-3.09-24.37-9.26c-6.17-6.17-9.26-14.45-9.26-24.83s2.76-18.63,8.28-24.76
		c5.52-6.13,12.52-9.2,21.02-9.2c8.49,0,15.19,2.67,20.1,8.01c4.9,5.34,7.36,12.92,7.36,22.73c0,2.8-0.22,5.39-0.66,7.75h-45.45
		c0.79,6.57,3.28,11.61,7.49,15.11c4.2,3.5,9.87,5.25,17.01,5.25c7.14,0,12.94-1.53,17.41-4.6v9.72
		C1079.92,268.01,1073.61,269.37,1066.17,269.37z M1078.91,231.14v-2.63c0-5.52-1.49-9.92-4.47-13.2
		c-2.98-3.28-7.03-4.93-12.15-4.93c-5.12,0-9.44,1.8-12.94,5.39c-3.5,3.59-5.56,8.72-6.17,15.37H1078.91z"/>
	<path fill="#0C1C2C" d="M1116.64,202.11v11.69c3.5-8.23,9.55-12.35,18.13-12.35c1.58,0,2.8,0.09,3.68,0.26v10.25
		c-1.84-0.61-3.72-0.92-5.65-0.92c-4.64,0-8.5,2.15-11.56,6.44c-3.07,4.29-4.6,9.24-4.6,14.84v36.39h-10.38l0.13-66.6H1116.64z"/>
</g>
</svg>
